<?xml version="1.0" encoding="utf-8"?>
<!-- Generator: Adobe Illustrator 18.0.0, SVG Export Plug-In . SVG Version: 6.00 Build 0)  -->
<!DOCTYPE svg PUBLIC "-//W3C//DTD SVG 1.1//EN" "http://www.w3.org/Graphics/SVG/1.1/DTD/svg11.dtd">
<svg version="1.1" id="Layer_1" xmlns="http://www.w3.org/2000/svg" xmlns:xlink="http://www.w3.org/1999/xlink" x="0px" y="0px"
	 width="16px" height="16px" viewBox="0 0 16 16" enable-background="new 0 0 16 16" xml:space="preserve">
<g id="Zoom_2_x2C__Magnifying_Glass_2">
	<path fill="#FFFFFF" d="M15.7,14.3l-3.1-3.1c0,0,0,0,0,0C13.5,10,14,8.6,14,7c0-3.9-3.1-7-7-7S0,3.1,0,7s3.1,7,7,7
		c1.6,0,3-0.5,4.2-1.4c0,0,0,0,0,0l3.1,3.1c0.2,0.2,0.5,0.3,0.7,0.3s0.5-0.1,0.7-0.3C16.1,15.3,16.1,14.7,15.7,14.3z M7,12
		c-2.8,0-5-2.2-5-5s2.2-5,5-5s5,2.2,5,5S9.8,12,7,12z"/>
</g>
</svg>
