<svg width="1144" height="1024" xmlns="http://www.w3.org/2000/svg" xmlns:svg="http://www.w3.org/2000/svg">
 <g>
  <title>Layer 1</title>
  <g id="svg_1" transform="matrix(1,0,0,-1,0,960) ">
   <path id="svg_2" d="m1015,441l89,89q12,13 12,30t-12,29t-29.5,12t-29.5,-12l-89,-89l-89,89q-13,12 -30,12t-29,-12t-12,-29t12,-30l89,-89l-89,-89q-12,-13 -12,-30t12,-29q7,-7 14.5,-9.5t15.5,-2.5q9,0 16.5,3.5t14.5,8.5l89,89l89,-89q8,-7 15,-9.5t16,-2.5t16.5,3.5t14.5,8.5q12,12 12,29t-12,30l-94,89l0,0zm-468,404l-314,-197l-172,0q-26,0 -44.5,-18.5t-18.5,-45.5l0,-286q0,-27 18.5,-45.5t44.5,-18.5l195,0l287,-185q22,-16 54,-5.5t32,40.5l0,726q2,30 -27.5,40.5t-54.5,-5.5l0,0z" fill="#f7f7f7"/>
  </g>
 </g>
</svg>
