<svg width="664" height="654" xmlns="http://www.w3.org/2000/svg" preserveAspectRatio="xMidYMid meet">
 <metadata>Created by potrace 1.15, written by Peter Selinger 2001-2017</metadata>

 <g>
  <title>background</title>
  <rect fill="none" id="canvas_background" height="402" width="582" y="-1" x="-1"/>
 </g>
 <g>
  <title>Layer 1</title>
  <g id="svg_1" fill="none" transform="translate(0,654) scale(0.10000000149011612,-0.10000000149011612) ">
   <path fill="#bf1313" id="svg_2" d="m3175,6114c-626,-47 -1126,-235 -1605,-604c-125,-96 -386,-359 -481,-485c-269,-354 -444,-730 -533,-1145c-79,-371 -81,-778 -5,-1160c67,-336 218,-697 412,-988c114,-171 190,-265 332,-411c148,-152 280,-262 460,-383c601,-402 1330,-556 2047,-433c279,47 497,119 763,250c310,153 500,289 751,539c240,240 393,452 537,741c343,688 388,1506 122,2231c-47,128 -188,414 -260,529c-142,223 -365,480 -565,650c-428,362 -964,594 -1511,654c-107,12 -386,21 -464,15zm-613,-1167l283,-163l5,-1087l5,-1087l537,310l537,310l133,-77c73,-42 139,-81 145,-87c10,-9 -231,-152 -1020,-608l-1032,-596l-3,1587c-1,872 0,1596 3,1609c8,31 63,64 97,58c15,-3 155,-79 310,-169zm1578,-910c630,-363 1157,-672 1173,-688c17,-19 27,-40 27,-59c0,-19 -10,-41 -27,-59c-39,-41 -3029,-1764 -3070,-1769c-26,-3 -39,2 -63,27l-31,30l3,112l3,112l1137,656c916,529 1134,658 1122,667c-8,6 -341,200 -739,430l-725,418l0,403l0,404l23,-12c12,-7 537,-309 1167,-672z"/>
  </g>
 </g>
</svg>