<svg enable-background="new 0 0 200 200" viewBox="0 0 200 200" xmlns="http://www.w3.org/2000/svg" xmlns:xlink="http://www.w3.org/1999/xlink"><clipPath id="a"><path d="m0 58.1h200v69.3h-200z"/></clipPath><clipPath id="b"><path d="m0 58.1h200v69.3h-200z"/></clipPath><g fill="#040000"><path clip-path="url(#a)" d="m103 99.7h17.2l.9-3.1h-17.2z"/><path clip-path="url(#a)" d="m123.2 92.4 3.5-11.7h-3.5l-2.5 8.6h-4.4l3.6-12.1h-3.3l-3.5 12.1h-4.4l2.5-8.6h-3.2l-3.5 11.7z"/><g clip-path="url(#a)"><path clip-path="url(#b)" d="m91.2 93.8c5.8-4.4 13.1-11 17.7-16.6h-4.1c-3.4 4.1-7.1 7.5-11.8 11.2z"/><path clip-path="url(#b)" d="m120.5 108.1s-3.8 2.6-6.2 4l2.4-8s-14.3-.1-14.5 0c-.9 4.3-1.8 8.7-5.9 11.8-.6 2.1-.8 3-1.6 5.4 4.4-3.7 7.4-5 9.8-13l.3-1.1h7.6l-1.3 4.2c-.4 1.9-2.7 4-2.7 4l1.8 2.7c1.3-.9 9.2-5.6 9.2-5.6z"/><path clip-path="url(#b)" d="m104.4 89.8h-3.4c-4.2 5.1-8.3 9.2-12.5 12.9l-1.6 5.1v.1c.8-.6 2.1-1.8 3.4-2.9 1.4-1.3 2.4-2.2 3-2.7l-5.9 19.5h3.5l7.3-24.5c2-2.1 4.8-5.4 6.2-7.5"/><path clip-path="url(#b)" d="m133.1 85.5c1.9-2.7 3.6-5.9 4.7-8.3h-3.4c-3.9 7.1-5.5 10.3-10.4 15.9-.5 1.8-.9 3.3-1.7 5.8 1.2-1 2.8-2.3 3.6-3.4-.8 5.1-.8 9.7 0 13.8-2.4 2.8-2.9 3.7-8.9 7.8-.6 2-.8 2.6-1.7 5.2 5.4-4 9.2-7.1 11.3-9.6 1.4 3.4 4.7 7 6.9 9.6.8-2 .8-2.2 1.6-4.1-3-3.1-5.1-7-5.5-9 3.9-4.7 7.6-11.5 11.1-20.5h3l1-3.3h-11.6zm-4 19.9c-.6-4.2-.2-9.6 1.3-16.1.2-.1.6-.6.6-.6h6.3c-2.6 6.8-5.3 12.4-8.2 16.7"/><path clip-path="url(#b)" d="m155.8 77.2h3.9l-3.7 12.7h5l-1 3.3h-5l-8.7 28.9h-3.9l8.7-28.9h-5.2l1-3.3h5.2zm-1.6 31h26.9l.8-2.7h3.9l-.8 2.7h8.5l-.9 2.9h-8.5l-1.6 5.4c-.9 3.3-3.5 5-8 5-2.6 0-5.4-.1-5.4-.1s.6-1.8.9-3.3c2.2.1 4.3.1 5 .1 2.2 0 3.4-.7 3.7-2.1l1.5-5h-26.9zm6.1 5.5 3.4-1.7c1.9 1.8 3.7 3.5 5.2 5.4l-3.5 1.5c-1.4-1.8-3.1-3.5-5.1-5.2m32.5-31.7h7.2l-.9 3.1h-16.7l-.9 3.1h13.5l-5.2 17.5h-3.8l.8-2.8h-9.8l-.8 2.7h-3.7l.8-2.7h-10l-.8 2.8h-3.7l5.3-17.5h13.7l.9-3.1h-16.3l.9-3.1h16.3l1.5-4.8h3.7l-1.5 4.8h8.9zm-27.7 14.9-.9 3.1h10l.9-3.1zm1.8-5.9-.9 3.1h10l.9-3.1zm11.9 5.9-.9 3.1h9.8l.9-3.1zm11.6-5.9h-9.8l-.9 3.1h9.8z"/><path clip-path="url(#b)" d="m194.2 82.1h-3.5l1.2-3.9h3.5z"/><path clip-path="url(#b)" d="m64.3 91.5c-1.2-.4-2-.6-1.4-2.2 1.4-3.4 1.5-6.4 0-8.5-2.8-4-10.4-3.8-19.1-.1 0 0-2.7 1.2-2-1 1.3-4.3 1.1-7.9-.9-10-4.7-4.7-17.3.2-28.1 11-8.1 8-12.8 16.6-12.8 24 0 14.2 18.2 22.8 35.9 22.8 23.3 0 38.8-13.5 38.8-24.3 0-6.5-5.5-10.2-10.4-11.7m-28.3 30.8c-14.2 1.4-26.4-5-27.3-14.3s9.8-18 24-19.4c14.1-1.3 26.3 5.1 27.3 14.4.9 9.3-9.9 17.9-24 19.3"/><path clip-path="url(#b)" d="m79.8 65.6c-5.6-6.2-13.9-8.6-21.6-7-1.8.4-2.9 2.1-2.5 3.9s2.1 2.9 3.9 2.5c5.4-1.2 11.3.5 15.3 5 4 4.4 5.1 10.5 3.4 15.8-.6 1.7.4 3.6 2.1 4.1 1.7.6 3.6-.4 4.1-2.1 2.4-7.5.9-16-4.7-22.2"/><path clip-path="url(#b)" d="m71.1 73.4c-2.7-3-6.8-4.2-10.5-3.4-1.5.3-2.5 1.8-2.2 3.4.3 1.5 1.8 2.5 3.3 2.2 1.8-.4 3.8.2 5.1 1.7s1.7 3.5 1.1 5.3c-.5 1.5.3 3.1 1.8 3.6s3.1-.3 3.6-1.8c1.3-3.9.6-8-2.2-11"/><path clip-path="url(#b)" d="m37.4 95.8c-6.7-1.8-14.4 1.6-17.3 7.5-3 6.1-.1 12.8 6.7 15 7.1 2.3 15.4-1.2 18.3-7.8 2.8-6.3-.7-12.9-7.7-14.7m-5.2 15.5c-1.4 2.2-4.3 3.1-6.5 2.1s-2.8-3.5-1.5-5.7c1.4-2.1 4.2-3.1 6.4-2.2 2.3 1.1 3 3.6 1.6 5.8m4.5-5.8c-.5.8-1.6 1.3-2.4.9s-1.1-1.3-.6-2.1 1.5-1.2 2.4-.9c.8.3 1.1 1.2.6 2.1"/></g></g></svg>