<?xml version="1.0" standalone="no"?>
<!DOCTYPE svg PUBLIC "-//W3C//DTD SVG 1.1//EN" "http://www.w3.org/Graphics/SVG/1.1/DTD/svg11.dtd" >
<!--
2013-9-30: Created.
-->
<svg>
<metadata>
Created by iconfont
</metadata>
<defs>

<font id="iconeditor" horiz-adv-x="1024" >
  <font-face
    font-family="iconeditor"
    font-weight="500"
    font-stretch="normal"
    units-per-em="1024"
    ascent="896"
    descent="-128"
  />
    <missing-glyph />
    
    <glyph glyph-name="liuchengtubeifen" unicode="&#58996;" d="M426.666667 277.333333v-256H128v256h298.666667z m469.333333 0v-256h-298.666667v256h298.666667z m-554.666667-85.333333H213.333333v-85.333333h128v85.333333z m469.333334 0h-128v-85.333333h128v85.333333z m-148.992 554.666667v-256h-106.922667L554.666667 426.666667H789.333333v-149.333334h-85.333333V341.333333H319.957333l0.042667-64h-85.333333V426.666667H469.376V490.666667H363.050667v256h298.666666z m-85.376-85.333334h-128v-85.333333h128v85.333333z"  horiz-adv-x="1024" />

    
    <glyph glyph-name="zitiyansebeifen1" unicode="&#58970;" d="M810.666667 128v-85.333333H213.333333v85.333333zM574.762667 768v-0.298667l0.298666 0.085334L723.584 213.33333300000004h-88.362667l-45.653333 170.453334h-153.685333L390.186667 213.33333300000004H301.909333l148.522667 554.453334 0.298667-0.085334V768h124.032z m-62.037334-97.408l-53.973333-201.472h107.946667l-53.973334 201.472z"  horiz-adv-x="1024" />

    
    <glyph glyph-name="tianchongyansebeifen1" unicode="&#58971;" d="M810.666667 128v-85.333333H213.333333v85.333333zM459.050667 788.736l332.544-192-192-332.544-73.898667 42.666667-42.666667-73.898667-36.992 21.333333-23.765333-41.130666H274.517333l60.714667 105.130666-36.949333 21.333334 42.666666 73.898666-73.898666 42.666667 192 332.544z m31.189333-116.565333l-106.666667-184.746667 184.746667-106.666667 106.666667 184.746667-184.746667 106.666667z"  horiz-adv-x="1024" />

    
    <glyph glyph-name="yijianfankuibeifen" unicode="&#58991;" d="M213.333333 597.333333l-0.042666-383.957333 213.76-0.042667L512 128l85.546667 85.333333h213.077333L810.666667 597.333333h85.333333l-0.042667-384H896v-85.333333h-298.453333L512 42.666667l-84.778667 85.333333-213.930666 0.042667L213.333333 128H128V597.333333h85.333333z m170.666667-149.76v-85.333333H298.666667v85.333333h85.333333z m170.666667 0v-85.333333h-85.333334v85.333333h85.333334z m170.666666 0v-85.333333h-85.333333v85.333333h85.333333zM896 682.666667v-85.333334H128V682.666667h768z"  horiz-adv-x="1024" />

    
    <glyph glyph-name="fanhuibeifen" unicode="&#58915;" d="M256 85.33333300000004v85.333334h405.333333a149.333333 149.333333 0 0 1 0 298.666666H291.328L291.285333 469.333333H233.130667L170.666667 469.333333l241.365333 241.365334 60.330667-60.330667L376.661333 554.666667 661.333333 554.666667a234.666667 234.666667 0 0 0 0-469.333334H256z"  horiz-adv-x="1024" />

    
    <glyph glyph-name="zhongzuobeifen" unicode="&#58941;" d="M768 85.33333300000004v85.333334H362.666667a149.333333 149.333333 0 0 0 0 298.666666h370.005333l0.042667-0.042666h58.154666L853.333333 469.333333l-241.365333 241.365334-60.330667-60.330667L647.338667 554.666667 362.666667 554.666667a234.666667 234.666667 0 0 1 0-469.333334H768z"  horiz-adv-x="1024" />

    
    <glyph glyph-name="qingchugeshi" unicode="&#58938;" d="M213.333333 85.33333300000004v-85.333333h597.333334v85.333333H213.333333z m396.202667 687.530667l-422.4-422.4 181.034667-181.034667h181.034666L881.066667 501.333333l-271.530667 271.530667z m-191.658667-312.32l150.869334-150.869333-54.869334-54.826667H403.541333l-95.701333 95.658667 110.037333 110.037333z m191.658667 191.658667l150.869333-150.869334-131.328-131.328-150.869333 150.869334 131.328 131.328z"  horiz-adv-x="1024" />

    
    <glyph glyph-name="Preview" unicode="&#58939;" d="M512 640c157.098667 0 299.306667-85.333333 426.666667-256-127.36-170.666667-269.568-256-426.666667-256-157.098667 0-299.306667 85.333333-426.666667 256 127.36 170.666667 269.568 256 426.666667 256z m0-85.333333c-107.52 0-208.64-50.56-305.109333-156.885334l-12.245334-13.738666 1.536-1.792c96.128-110.421333 196.821333-164.949333 303.914667-168.704L512 213.33333300000004c107.52 0 208.64 50.56 305.109333 156.885334l12.202667 13.781333-1.493333 1.749333C731.733333 496.170667 631.04 550.698667 523.946667 554.4533329999999L512 554.666667z m0-85.333334a85.333333 85.333333 0 1 0 0-170.666666 85.333333 85.333333 0 0 0 0 170.666666z"  horiz-adv-x="1024" />

    
    <glyph glyph-name="niantiedaoshangfang_lie" unicode="&#58990;" d="M768 0v128h-85.333333v-42.666667H256L255.957333 682.666667H682.666667v-42.666667h85.333333V768H170.666667v-768h597.333333z m128 170.666667l-0.042667 42.624L896 213.333333V597.333333l-42.709333-0.042666L853.333333 597.333333h-298.666666v-426.666666h341.333333z m-85.333333 85.333333h-170.666667V512h170.666667v-256z"  horiz-adv-x="1024" />

    
    <glyph glyph-name="niantiedaoxiafang_lie" unicode="&#58989;" d="M725.333333 170.666667h170.666667l-0.042667 42.624L896 213.333333V597.333333l-32.042667-0.042666L864 597.333333h-138.709333L725.333333 768H170.666667v-768h554.666666v170.666667z m-85.333333-85.333334H256L255.957333 682.666667h384L640 256v-170.666667z m170.666667 170.666667h-85.333334l-0.042666 256H810.666667v-256z"  horiz-adv-x="1024" />

    
    <glyph glyph-name="chaifendanyuange" unicode="&#58988;" d="M810.666667 42.666667l-426.709334 0.042666L384 42.666667H298.666667l-0.042667 0.042666L213.333333 42.666667v85.333333l85.290667 0.042667L298.666667 298.666667H213.290667L213.333333 42.666667H128V725.333333h768v-682.666666h-85.333333zM469.333333 469.376H384l-0.042667-341.333333L810.666667 128v341.333333l-256 0.042667V469.333333h-85.333334v0.042667z m188.501334-81.749333l30.165333-30.165334-60.330667-60.330666 60.330667-60.373334-30.165333-30.165333-60.330667 60.373333-60.330667-60.373333-30.165333 30.165333 60.288 60.373334-60.288 60.330666 30.165333 30.165334 60.288-60.330667 60.373334 60.330667zM298.666667 469.333333H213.333333V384h85.333334V469.376z m256 170.666667v-85.333333L810.666667 554.666667V640l-256 0.042667z m-256 0H213.333333v-85.333333h85.333334v85.333333z m170.666666 0H384v-85.333333h85.333333v85.333333z"  horiz-adv-x="1024" />

    
    <glyph glyph-name="zaishangfangcharu" unicode="&#58987;" d="M469.333333 42.666667v0.042666L213.333333 42.666667v85.333333l256 0.042667v128H213.290667L213.333333 42.666667H128V704h170.666667v-85.333333l-85.333334 0.042666-0.042666-277.333333 597.333333-0.042667L810.666667 618.709333 725.333333 618.666667v85.333333h170.666667V42.666667H469.333333z m341.290667 213.333333H554.666667v-128h255.957333v128zM554.666667 725.333333v-128h128v-85.333333h-128v-128h-85.333334V512H341.333333V597.333333h128V725.333333h85.333334z"  horiz-adv-x="1024" />

    
    <glyph glyph-name="zaixiafangcharu" unicode="&#58986;" d="M554.666667 725.333333v-0.042666L810.666667 725.333333v-85.333333l-256-0.042667v-128h256.042666L810.666667 725.333333h85.333333v-661.333333h-170.666667v85.333333l85.333334-0.042666 0.042666 277.333333-597.333333 0.042667L213.333333 149.290667l85.333334 0.042666v-85.333333H128V725.333333h426.666667zM213.376 512H469.333333V640H213.376v-128zM469.333333 42.666667v128H341.333333v85.333333h128v128h85.333334v-128h128v-85.333333h-128v-128h-85.333334z"  horiz-adv-x="1024" />

    
    <glyph glyph-name="niantiedaoxiafang_hang" unicode="&#58985;" d="M128 725.333333v-682.666666h554.666667v170.666666h213.333333V554.666667h-213.333333V725.333333H128z m469.333333-85.333333v-512H213.333333V640h384z m85.333334-170.666667h128v-170.666666h-128v170.666666z"  horiz-adv-x="1024" />

    
    <glyph glyph-name="niantiedaoshangfang_hang" unicode="&#58984;" d="M682.666667 42.666667v128h-85.333334v-42.666667H213.333333V640h384v-42.666667h85.333334V725.333333H128v-682.666666h554.666667z m-213.333334 170.666666h426.666667V554.666667H384v-341.333334h85.333333z m341.333334 85.333334h-341.333334v170.666666h341.333334v-170.666666z"  horiz-adv-x="1024" />

    
    <glyph glyph-name="a-fuzhiliebeifen3" unicode="&#58983;" d="M256 128V768h341.333333v-85.333333H341.333333v-554.666667H256z m170.666667 469.333333h298.666666v-597.333333h-298.666666V597.333333z m213.333333-512.042666V512h-128v-426.666667l128-0.042666z"  horiz-adv-x="1024" />

    
    <glyph glyph-name="a-fuzhihangbeifen2" unicode="&#58982;" d="M213.333333 298.666667V554.666667h554.666667V640H128v-341.333333h85.333333z m682.666667 170.666666H298.666667v-298.666666h597.333333v298.666666z m-85.333333-85.333333v-128H384v128h426.666667z"  horiz-adv-x="1024" />

    
    <glyph glyph-name="jianqieliebeifen" unicode="&#58981;" d="M170.666667 725.333333v-725.333333h256v0.042667L469.333333 0v156.202667l86.912 86.869333 69.589334-69.674667-3.413334-7.210666a106.666667 106.666667 0 1 1 173.397334 33.237333l-5.76 5.333333a106.752 106.752 0 0 1-118.912 13.866667l-69.632 69.717333 69.632 69.632a106.752 106.752 0 0 1 118.570666 13.568l6.101334 5.674667a106.666667 106.666667 0 1 1-169.984 26.026667l-69.589334-69.632L381.866667 507.946667v-90.496l129.109333-129.109334-48.896-48.896L384 317.482667 383.957333 85.333333h-128L256 640.042667 384 640v-42.666667l85.333333-85.333333V725.333333H170.666667z m519.552-571.178666a42.666667 42.666667 0 1 0 60.373333-60.330667 42.666667 42.666667 0 0 0-60.373333 60.330667z m0 328.661333a42.666667 42.666667 0 1 0 60.373333-60.373333 42.666667 42.666667 0 0 0-60.373333 60.373333z"  horiz-adv-x="1024" />

    
    <glyph glyph-name="jianqiehangbeifen" unicode="&#58980;" d="M810.069333 55.338667a106.666667 106.666667 0 0 0-150.826666 0l-5.376 5.802666A106.752 106.752 0 0 0 640 180.010667l-69.674667 69.674666-69.674666-69.674666a106.709333 106.709333 0 1 0-45.226667 45.354666l69.589333 69.632-174.336 174.293334h90.496l129.109334-129.066667 47.36 47.36L535.850667 469.333333H810.666667V597.333333H213.333333v-128h42.666667l85.333333-85.333333H128V682.666667h768v-256l-0.042667-0.042667L896 384h-191.402667l-89.045333-89.002667 69.674667-69.632 6.826666 3.242667a106.666667 106.666667 0 0 0 118.016-173.226667z m-105.6 45.269333a42.666667 42.666667 0 1 1 60.330667 60.330667 42.666667 42.666667 0 0 1-60.330667-60.330667z m-328.661333 0a42.666667 42.666667 0 1 1 60.373333 60.330667 42.666667 42.666667 0 0 1-60.373333-60.330667z"  horiz-adv-x="1024" />

    
    <glyph glyph-name="hangshuxingbeifen" unicode="&#58979;" d="M213.333333 725.333333h597.333334v-85.333333l-255.957334-0.042667v-159.658666h256L810.666667 725.333333h85.333333v-682.666666H128V725.333333h85.333333z m0.042667-245.034666h256V640h-256v-159.701333z m341.333333-352.341334H810.666667v160.341334h-255.957334v-160.341334zM213.333333 128h256.042667v160.298667H213.333333V128z"  horiz-adv-x="1024" />

    
    <glyph glyph-name="shanchuliebeifen" unicode="&#58978;" d="M383.829333 725.333333v0.213334h85.333334V725.333333l85.333333-0.042666v0.256h85.333333v-0.256L810.666667 725.333333v-85.333333l-170.837334-0.042667v-63.744h-85.333333V639.957333l-85.333333 0.042667v-63.786667h-85.333334V640H213.376L213.333333 128h170.709334L384 190.848h85.333333L469.376 128h85.333333L554.666667 190.848h85.333333L640.042667 128l170.624-0.042667V725.333333h85.333333v-682.666666H128V725.333333h255.829333z m38.528-493.866666l-60.330666 60.330666 90.496 90.496-90.496 90.496 60.330666 60.373334 90.496-90.538667 90.496 90.538667 60.373334-60.373334-90.538667-90.496 90.538667-90.496-60.373334-60.330666-90.496 90.496-90.496-90.496z"  horiz-adv-x="1024" />

    
    <glyph glyph-name="shanchuhangbeifen" unicode="&#58977;" d="M213.333333 725.333333h597.333334v-85.333333H213.376v-128H298.666667v-85.333333H213.376L213.333333 341.333333h85.333334v-85.333333H213.333333v-128l597.333334-0.042667V256h-85.333334v85.333333h85.333334l0.042666 85.333334H725.333333V512h85.376L810.666667 725.333333h85.333333v-682.666666H128V725.333333h85.333333z m209.024-493.866666l-60.330666 60.330666 90.496 90.496-90.496 90.496 60.330666 60.373334 90.496-90.538667 90.496 90.538667 60.373334-60.373334-90.538667-90.496 90.538667-90.496-60.373334-60.330666-90.496 90.496-90.496-90.496z"  horiz-adv-x="1024" />

    
    <glyph glyph-name="zaiyoucecharubeifen" unicode="&#58976;" d="M128.042667 426.666667H128v-85.333334h0.042667L128 42.666667h746.666667v170.666666h-85.333334l0.042667-85.333333h-362.666667V640l362.624 0.042667V554.666667h85.333334V725.333333H128l0.042667-298.666666z m85.333333-298.666667v213.333333h128v-213.333333h-128z m491.349333 405.418667l0.042667-106.709334-107.733333-0.042666v-85.333334l107.733333 0.042667v-106.624h85.333333v106.624L896 341.333333v85.333334l-105.898667 0.042666V533.418667h-85.333333zM213.376 426.666667V640h128v-213.333333h-128z"  horiz-adv-x="1024" />

    
    <glyph glyph-name="zaizuocecharubeifen" unicode="&#58975;" d="M895.957333 426.666667H896v-85.333334h-0.042667L896 42.666667H149.333333v170.666666h85.333334l-0.042667-85.333333h362.666667V640L234.666667 640.042667V554.666667h-85.333334V725.333333H896l-0.042667-298.666666z m-85.333333-298.666667v213.333333h-128v-213.333333h128zM319.274667 533.418667l-0.042667-106.709334 107.733333-0.042666v-85.333334l-107.733333 0.042667v-106.624h-85.333333v106.624L128 341.333333v85.333334l105.898667 0.042666V533.418667h85.333333zM810.624 426.666667V640h-128v-213.333333h128z"  horiz-adv-x="1024" />

    
    <glyph glyph-name="hebingdanyuangebeifen" unicode="&#58974;" d="M810.666667 42.666667l-426.709334 0.042666L384 42.666667H298.666667l-0.042667 0.042666L213.333333 42.666667v85.333333l85.290667 0.042667L298.666667 298.666667H213.290667L213.333333 42.666667H128V725.333333h768v-682.666666h-85.333333zM469.333333 469.376H384l-0.042667-341.333333 426.666667-0.042667 0.042667 341.333333-256 0.042667V469.333333h-85.333334v0.042667z m-170.666666 0H213.333333V384h85.333334V469.376z m256 170.666667v-85.333334L810.666667 554.666667V640l-256 0.042667z m-256 0H213.333333v-85.333334h85.333334v85.333334z m170.666666 0H384v-85.333334h85.333333v85.333334z"  horiz-adv-x="1024" />

    
    <glyph glyph-name="shanchubiaogebeifen" unicode="&#58973;" d="M810.666667 42.666667H213.333333v85.333333h597.290667L810.666667 640 213.333333 640.042667V42.666667H128V725.333333h768v-682.666666h-85.333333zM602.496 534.869333l60.373333-60.373333L572.330667 384l90.538666-90.496-60.373333-60.373333L512 323.669333l-90.496-90.538666-60.373333 60.373333L451.669333 384 361.130667 474.496 421.546667 534.869333 512 444.330667l90.496 90.538666z"  horiz-adv-x="1024" />

    
    <glyph glyph-name="biaogeshuxingbeifen" unicode="&#58972;" d="M426.666667 42.666667l-0.042667 0.042666L213.333333 42.666667v85.333333l213.290667 0.042667v213.333333h-213.333333L213.333333 42.666667H128V725.333333h768v-682.666666H426.666667z m384 298.666666h-298.666667v-213.333333h298.666667v213.333333z m-384 298.709334H213.333333v-213.333334h213.333334v213.333334z"  horiz-adv-x="1024" />

    
    <glyph glyph-name="a-Dividingline1" unicode="&#58964;" d="M768 277.33333300000004V42.66666699999996H256v234.666666h512z m-85.333333-85.333333H341.333333V128h341.333334v64z m213.333333 234.666667v-85.333334H128v85.333334h768z m-128 298.666666v-234.666666H256V725.333333h512z m-85.333333-85.333333H341.333333v-64h341.333334V640z"  horiz-adv-x="1024" />

    
    <glyph glyph-name="check1" unicode="&#58958;" d="M853.333333 768v-576L707.029333 0H170.666667V768h682.666666z m-85.333333-85.333333H256v-597.333334h408.746667L768 220.842667V682.666667z m-323.242667-131.413334v-128h128v128h85.333334v-341.333333h-85.333334v128h-128.042666v-128h-85.333334v341.333333h85.333334z"  horiz-adv-x="1024" />

    
    <glyph glyph-name="a-Linespacing" unicode="&#58969;" d="M853.333333 170.666667v-85.333334H384v85.333334h469.333333zM341.333333 213.333333l-85.333333-128-85.333333 128h170.666666z m512 128v-85.333333H384v85.333333h469.333333z m0 170.666667v-85.333333H384V512h469.333333zM256 682.666667l85.333333-128H170.666667l85.333333 128z m597.333333 0v-85.333334H384V682.666667h469.333333z"  horiz-adv-x="1024" />

    
    <glyph glyph-name="Italic1" unicode="&#58951;" d="M384 42.666667v85.333333h74.666667l64 512.042667L448 640V725.333333H682.666667v-85.333333h-74.666667l-64-512h74.666667v-85.333333H384z"  horiz-adv-x="1024" />

    
    <glyph glyph-name="Code1" unicode="&#58968;" d="M538.965333 683.52l82.389334-22.058667L477.866667 125.696l-82.432 22.058667L538.965333 683.52z m-254.933333-39.594667L344.32 583.594667 163.413333 402.56l180.992-180.992-60.330666-60.330667-181.034667 180.992L42.666667 402.602667l241.365333 241.322666z m455.936 0L981.333333 402.602667l-241.365333-241.365334-60.330667 60.330667 180.992 180.992-180.992 181.034667 60.330667 60.330666z"  horiz-adv-x="1024" />

    
    <glyph glyph-name="photo1" unicode="&#58967;" d="M896 702.762667V42.666667H128V702.762667h768z m-85.333333-85.290667H213.333333v-489.429333l1.066667 0.042666 221.312 266.88L810.666667 164.010667V617.472z m-356.565334-334.08l-128.853333-155.306667h380.928l-252.074667 155.306667zM682.666667 512v-85.333333h-85.333334V512h85.333334z"  horiz-adv-x="1024" />

    
    <glyph glyph-name="Align1" unicode="&#58963;" d="M853.333333 170.666667v-85.333334H170.666667v85.333334h682.666666z m0 170.666666v-85.333333H170.666667v85.333333h682.666666z m0 170.666667v-85.333333H170.666667V512h682.666666z m0 170.666667v-85.333334H170.666667V682.666667h682.666666z"  horiz-adv-x="1024" />

    
    <glyph glyph-name="center" unicode="&#58943;" d="M853.333333 170.666667v-85.333334H170.666667v85.333334h682.666666z m-128 170.666666v-85.333333H298.666667v85.333333h426.666666z m128 170.666667v-85.333333H170.666667V512h682.666666z m-128 170.666667v-85.333334H298.666667V682.666667h426.666666z"  horiz-adv-x="1024" />

    
    <glyph glyph-name="a-Alignleft" unicode="&#58966;" d="M853.333333 170.666667v-85.333334H170.666667v85.333334h682.666666z m-256 170.666666v-85.333333H170.666667v85.333333h426.666666z m256 170.666667v-85.333333H170.666667V512h682.666666z m-256 170.666667v-85.333334H170.666667V682.666667h426.666666z"  horiz-adv-x="1024" />

    
    <glyph glyph-name="a-Alignright" unicode="&#58965;" d="M853.333333 170.666667v-85.333334H170.666667v85.333334h682.666666z m0 170.666666v-85.333333H426.666667v85.333333h426.666666z m0 170.666667v-85.333333H170.666667V512h682.666666z m0 170.666667v-85.333334H426.666667V682.666667h426.666666z"  horiz-adv-x="1024" />

    
    <glyph glyph-name="install" unicode="&#58962;" d="M512 768l332.544-192v-384L512 0l-332.544 192v384L512 768z m0.042667-98.56L264.789333 526.677333v-285.397333l247.253334-142.762667 247.210666 142.762667V526.677333L512.042667 669.44zM512 512a128 128 0 1 0 0-256 128 128 0 0 0 0 256z m0-85.333333a42.666667 42.666667 0 1 1 0-85.333334 42.666667 42.666667 0 0 1 0 85.333334z"  horiz-adv-x="1024" />

    
    <glyph glyph-name="Unlink" unicode="&#58961;" d="M300.8 474.496l60.330667-60.330667-90.453334-90.496a128 128 0 1 1 180.992-181.034666l90.496 90.496 60.330667-60.330667L512 82.346667A213.333333 213.333333 0 1 0 210.304 384L300.8 474.496z m30.165333 211.2l211.2-211.2 90.496 90.538667 60.373334-60.373334-90.581334-90.453333 211.242667-211.2-60.330667-60.373333L270.634667 625.365333 330.965333 685.653333z m90.538667-331.861333l60.330667-60.330667-90.496-90.538667-60.373334 60.373334 90.538667 90.453333z m301.653333-60.330667l-60.288 60.330667 90.453334 90.496 5.802666 6.144a128 128 0 0 1-186.794666 174.890666l-90.496-90.496L421.504 595.2 512 685.653333l7.68 7.338667A213.333333 213.333333 0 0 0 813.738667 384l-90.496-90.496z"  horiz-adv-x="1024" />

    
    <glyph glyph-name="top" unicode="&#58960;" d="M512 426.666667l241.365333-241.365334-60.330666-60.330666L512 305.92l-181.034667-180.992-60.330666 60.330667 181.034666 181.034666L512 426.666667z m234.666667 128v-85.333334h-469.333334V554.666667h469.333334z"  horiz-adv-x="1024" />

    
    <glyph glyph-name="ExitFullScreen-2" unicode="&#58959;" d="M853.333333 298.666667v-85.333334l-170.709333 0.042667L682.666667 42.666667h-85.333334v256h256z m-426.666666-256H341.333333v170.709333L170.666667 213.333333v85.333334h256v-256z m256 682.666666l-0.042667-170.666666H853.333333v-85.333334h-256V725.333333h85.333334z m-256 0v-256H341.333333v0.042667L170.666667 469.333333V554.666667l170.666666 0.042666V725.333333h85.333334z"  horiz-adv-x="1024" />

    
    <glyph glyph-name="reading" unicode="&#58957;" d="M853.333333 725.333333v-682.666666H170.666667V725.333333h682.666666z m-85.333333-85.333333H256v-512h512V640z m-341.333333-256v-85.333333h85.333333v-85.333334H341.333333v170.666667h85.333334z m256 170.666667v-170.666667h-85.333334v85.333333h-85.333333V554.666667h170.666667z"  horiz-adv-x="1024" />

    
    <glyph glyph-name="ExitFullScreen" unicode="&#58956;" d="M810.666667 341.333333v-85.333333l-170.709334 0.042667L640 85.333333h-85.333333v256h256z m-341.333334-256H384v170.709334L213.333333 256v85.333333h256v-256z m170.666667 597.333334l-0.042667-170.666667H810.666667v-85.333333h-256V682.666667h85.333333z m-170.666667 0v-256H384v0.042666L213.333333 426.666667V512l170.666667 0.042667V682.666667h85.333333z"  horiz-adv-x="1024" />

    
    <glyph glyph-name="fullscreen" unicode="&#58955;" d="M853.333333 298.666667v-256h-256v85.333333h170.666667v170.666667h85.333333zM256 298.666667v-170.666667h170.666667v-85.333333H170.666667v256h85.333333z m170.666667 426.666666v-85.333333H256v-170.666667H170.666667V725.333333h256z m426.666666-256h-85.333333V640h-170.666667V725.333333h256v-256z"  horiz-adv-x="1024" />

    
    <glyph glyph-name="mark" unicode="&#58954;" d="M810.666667 725.333333v-682.666666l-298.666667 170.666666-298.666667-170.666666V725.333333h597.333334z m-85.333334-85.333333H298.666667v-450.261333l213.333333 121.898666 213.333333-121.898666V640z"  horiz-adv-x="1024" />

    
    <glyph glyph-name="title" unicode="&#58953;" d="M725.333333 85.333333h-85.333333v256H384v-256H298.666667V682.666667h85.333333v-256h256V682.666667h85.333333v-597.333334z"  horiz-adv-x="1024" />

    
    <glyph glyph-name="more1" unicode="&#58952;" d="M512 213.333333l-213.333333 256h426.666666z"  horiz-adv-x="1024" />

    
    <glyph glyph-name="tick" unicode="&#58937;" d="M448.725333 140.928l-211.2 211.2 45.226667 45.226667 165.973333-165.973334 316.8 316.842667 45.226667-45.226667-362.026667-362.069333z"  horiz-adv-x="1024" />

    
    <glyph glyph-name="Orderly" unicode="&#58940;" d="M227.84 195.84c26.88 0 46.293333-17.92 46.293333-43.52 0-16.426667-7.466667-25.813333-17.493333-31.146667 10.88-5.76 19.626667-16.213333 19.626667-34.56 0-30.293333-22.186667-45.226667-48.213334-45.226666-24.746667 0-48 13.013333-48.426666 44.8h27.733333c0.426667-13.653333 9.813333-19.84 20.693333-19.84 11.946667 0 20.48 7.466667 20.48 21.12 0 12.586667-7.68 20.906667-21.333333 20.906666H223.146667v24.106667h4.053333c13.44 0 19.2 8.32 19.2 18.986667 0 12.8-8.533333 19.413333-18.56 19.413333-10.453333 0-18.133333-6.826667-18.773333-18.346667h-27.733334c0.64 27.093333 20.906667 43.306667 46.506667 43.306667zM853.333333 170.666667v-85.333334H341.333333v85.333334h512zM229.546667 462.933333c26.88 0 46.08-16.853333 46.08-44.16 0-14.72-5.76-22.613333-16.213334-34.773333l-42.453333-49.28H275.626667v-24.96H183.253333v24.96l56.746667 65.92c5.546667 6.613333 7.893333 11.306667 7.893333 18.346667 0 11.306667-6.613333 18.986667-18.346666 18.986666-9.173333 0-18.56-4.693333-18.56-19.413333h-27.733334c0 27.733333 20.266667 44.373333 46.293334 44.373333zM853.333333 426.666667v-85.333334H341.333333v85.333334h512zM251.306667 706.56V554.666667h-27.733334V676.693333l-30.933333-26.88v29.866667l30.933333 26.88h27.733334zM853.333333 682.666667v-85.333334H341.333333V682.666667h512z"  horiz-adv-x="1024" />

    
    <glyph glyph-name="zhuanzhu" unicode="&#58942;" d="M554.666667 810.666667l0.042666-87.978667a341.504 341.504 0 0 0 295.978667-295.978667L938.666667 426.666667v-85.333334h-87.978667a341.504 341.504 0 0 0-295.978667-296.021333L554.666667-42.666667h-85.333334v87.978667A341.504 341.504 0 0 0 173.312 341.333333H85.333333v85.333334l87.978667 0.042666A341.504 341.504 0 0 0 469.333333 722.688V810.666667h85.333334z m0-174.208V554.666667h-85.333334V636.458667a256.213333 256.213333 0 0 1-209.792-209.749334L341.333333 426.666667v-85.333334H259.541333A256.213333 256.213333 0 0 1 469.333333 131.541333V213.333333h85.333334v-81.792A256.213333 256.213333 0 0 1 764.501333 341.333333H682.666667v85.333334h81.792A256.213333 256.213333 0 0 1 554.666667 636.501333z"  horiz-adv-x="1024" />

    
    <glyph glyph-name="Export" unicode="&#58945;" d="M256 384v-213.333333h512v213.333333h85.333333v-298.666667H170.666667v298.666667h85.333333z m253.184 336.469333l180.992-181.034666-60.330667-60.330667L554.666667 554.282667V298.666667h-85.333334V560L388.48 479.104 328.149333 539.434667l181.034667 181.034666z"  horiz-adv-x="1024" />

    
    <glyph glyph-name="right" unicode="&#58946;" d="M466.773333 202.666667l-181.034666 181.034666 45.226666 45.226667 135.765334-135.765333 256.426666 256.426666 45.269334-45.226666-301.653334-301.696zM512 810.666667c235.648 0 426.666667-191.018667 426.666667-426.666667s-191.018667-426.666667-426.666667-426.666667S85.333333 148.352 85.333333 384 276.352 810.666667 512 810.666667z m0-64a362.666667 362.666667 0 1 1 0-725.333334 362.666667 362.666667 0 0 1 0 725.333334z"  horiz-adv-x="1024" />

    
    <glyph glyph-name="Importfiles" unicode="&#58947;" d="M426.666667 682.666667l85.333333-85.333334h384v-554.666666H128V682.666667h298.666667z m384-320H213.333333v-234.624h597.333334V362.666667zM391.253333 597.376H213.333333V448h597.333334V512.042667L476.672 512 391.253333 597.376z"  horiz-adv-x="1024" />

    
    <glyph glyph-name="FormatPainter" unicode="&#58948;" d="M384 725.333333v-128H213.333333v-256h597.333334V597.333333h-170.666667V725.333333H384z m85.333333-85.333333h85.333334v-128h170.666666v-85.333333H298.666667V512h170.666666V640zM213.333333 426.666667v-266.666667L170.666667 42.666667h597.333333l42.666667 117.333333V426.666667H213.333333z m85.333334-85.333334h426.666666v-166.357333L708.266667 128H292.522667L298.666667 144.981333V341.333333z"  horiz-adv-x="1024" />

    
    <glyph glyph-name="quote" unicode="&#58949;" d="M405.888 691.285333l66.56-64.768A256.128 256.128 0 0 1 298.666667 384v-42.666667h128v-213.333333H213.333333v256a341.333333 341.333333 0 0 0 192.554667 307.285333z m341.333333 0l66.56-64.768A256.128 256.128 0 0 1 640 384v-42.666667h128v-213.333333h-213.333333v256a341.333333 341.333333 0 0 0 192.554666 307.285333z"  horiz-adv-x="1024" />

    
    <glyph glyph-name="Strikethrough" unicode="&#58950;" d="M727.765333 298.666667a228.522667 228.522667 0 0 0 12.544-69.973334l0.128-9.984-0.256-8.106666c-5.76-102.144-120.746667-175.658667-241.792-167.296-122.24 8.448-216.704 71.68-221.994666 180.693333l-0.256 9.728h85.333333c0-60.373333 56.234667-99.285333 142.805333-105.301333 77.269333-5.333333 145.749333 37.802667 150.570667 84.992l0.256 5.248c0 23.808-2.645333 42.112-11.946667 61.44a95.488 95.488 0 0 1-11.605333 18.56h96.213333zM170.666667 341.333333v85.333334h140.16a183.253333 183.253333 0 0 0-14.293334 24.618666 204.16 204.16 0 0 0-17.92 60.16 228.522667 228.522667 0 0 0-2.346666 28.245334l-0.128 10.026666 0.256 8.106667c5.76 102.144 120.746667 175.658667 241.792 167.253333 122.24-8.405333 216.746667-71.68 221.994666-180.650666l0.256-9.728h-85.333333c0 60.373333-56.234667 99.285333-142.805333 105.301333-77.269333 5.333333-145.749333-37.802667-150.528-84.992l-0.298667-5.290667c0-23.765333 2.645333-42.069333 11.946667-61.44 17.493333-36.309333 54.229333-58.965333 124.16-61.013333l10.666666-0.170667 0.042667-0.426666H853.333333v-85.333334H170.666667z"  horiz-adv-x="1024" />

    
    <glyph glyph-name="Typewriterstyle" unicode="&#58911;" d="M256 170.666667h512v-85.333334H256v85.333334z m640 341.333333v-256H128V512h768z m-85.333333-85.333333H213.333333v-85.333334h597.333334v85.333334z m-42.666667 256v-85.333334H256V682.666667h512z"  horiz-adv-x="1024" />

    
    <glyph glyph-name="table" unicode="&#58912;" d="M426.666667 42.66666699999996l-0.042667 0.042666L213.333333 42.66666699999996v85.333333l213.290667 0.042667v213.333333h-213.333333L213.333333 42.66666699999996H128V725.333333h768v-682.666666H426.666667z m384 298.666666h-298.666667v-213.333333h298.666667v213.333333z m0 298.666667h-298.666667v-213.333333h298.666667V640z m-384 0.042667H213.333333v-213.333334h213.333334v213.333334z"  horiz-adv-x="1024" />

    
    <glyph glyph-name="import" unicode="&#58913;" d="M256 384v-213.333333h512v213.333333h85.333333v-298.666667H170.666667v298.666667h85.333333z m292.992 336.469333v-261.290666l80.853333 80.853333 60.330667-60.330667-120.661333-120.704L509.184 298.666667 328.106667 479.701333l60.330666 60.330667 75.178667-75.178667v255.573334h85.333333z"  horiz-adv-x="1024" />

    
    <glyph glyph-name="more" unicode="&#58914;" d="M512 298.666667l-85.333333 128h170.666666z"  horiz-adv-x="1024" />

    
    <glyph glyph-name="help" unicode="&#58916;" d="M512-42.666667C277.333333-42.666667 85.333333 149.333333 85.333333 384S277.333333 810.666667 512 810.666667s426.666667-192 426.666667-426.666667-192-426.666667-426.666667-426.666667z m0 85.333334c187.989333 0 341.333333 153.344 341.333333 341.333333 0 187.989333-153.344 341.333333-341.333333 341.333333-187.989333 0-341.333333-153.344-341.333333-341.333333 0-187.989333 153.344-341.333333 341.333333-341.333333z m109.824 544.64c26.368-24.576 39.552-58.325333 39.552-100.565334 0-34.389333-8.533333-63.189333-25.002667-85.717333-5.930667-7.765333-24.448-26.026667-55.381333-54.826667a117.76 117.76 0 0 1-27.648-36.522666c-7.210667-14.250667-10.88-30.293333-10.624-46.506667v-11.946667h-70.528v11.946667c0 26.026667 3.882667 48.554667 13.098667 66.816 8.533333 19.626667 33.621333 48.512 74.453333 87.168l11.221333 13.312c11.861333 16.298667 18.346667 33.024 18.346667 51.328 0 24.661333-6.613333 43.605333-19.157333 57.6-13.098667 14.08-32.213333 21.077333-56.021334 21.077333-29.610667 0-51.370667-9.813333-64.469333-30.208-11.946667-16.896-17.834667-40.832-17.834667-71.722666h-69.12c0 51.328 13.824 91.349333 41.386667 120.96 27.946667 30.293333 66.218667 45.098667 114.901333 45.098666 42.24 0 76.544-11.861333 102.826667-37.290666z m-83.498667-374.357334c8.149333-7.765333 12.245333-17.92 12.245334-30.506666 0.128-11.690667-4.522667-22.954667-12.757334-31.018667a42.837333 42.837333 0 0 0-30.165333-11.904c-23.04-0.384-42.026667 18.517333-42.410667 42.24v0.853333c0 12.501333 4.096 22.613333 12.202667 30.378667a40.234667 40.234667 0 0 0 30.08 11.861333c12.202667 0 22.613333-3.584 30.805333-11.946666z"  horiz-adv-x="1024" />

    
    <glyph glyph-name="edit" unicode="&#58918;" d="M170.666667 42.666667V725.333333h469.333333v-85.333333H256l-0.042667-512h512L768 512h85.333333l-0.042666-384H853.333333v-85.333333H170.666667zM815.829333 748.202667l60.373334-60.373334-331.904-331.861333-60.330667 60.330667 331.861333 331.904z"  horiz-adv-x="1024" />

    
    <glyph glyph-name="stencil" unicode="&#58919;" d="M597.333333 469.333333v-426.666666H170.666667V469.333333h426.666666z m256 0v-426.666666h-213.333333V469.333333h213.333333z m-341.333333-85.333333H256v-256h256v256z m256 0h-42.666667v-256h42.666667v256z m85.333333 341.333333v-213.333333H170.666667V725.333333h682.666666z m-85.333333-85.333333H256v-42.666667h512V640z"  horiz-adv-x="1024" />

    
    <glyph glyph-name="delete" unicode="&#58922;" d="M853.333333 597.333333v-85.333333h-85.333333v-469.333333H256V512H170.666667V597.333333h682.666666z m-170.666666-85.333333H341.333333v-384h341.333334V512z m-202.453334-85.674667v-213.333333h-85.333333v213.333333h85.333333z m149.333334 0v-213.333333h-85.333334v213.333333h85.333334zM640 725.333333v-85.333333H384V725.333333h256z"  horiz-adv-x="1024" />

    
    <glyph glyph-name="cancel" unicode="&#58923;" d="M701.269333 617.642667l45.269334-45.226667-188.586667-188.586667 188.586667-188.586666-45.226667-45.226667-188.586667 188.586667-188.586666-188.586667-45.226667 45.226667 188.544 188.586666-188.586667 188.586667 45.312 45.226667 188.544-188.544 188.586667 188.586666z"  horiz-adv-x="1024" />

    
    <glyph glyph-name="formula" unicode="&#58924;" d="M768 682.666667v-85.333334l-391.338667 0.042667 211.2-211.2L375.765333 170.666667 768 170.666667v-85.333334H256v85.333334l211.626667 215.04L256 597.333333l0.042667 0.042667L256 597.333333V682.666667h512z"  horiz-adv-x="1024" />

    
    <glyph glyph-name="contents" unicode="&#58925;" d="M768 682.666667L256 682.709333V0H170.666667V768h682.666666v-768H256v85.333333h512V682.666667z m-170.666667-426.666667v-85.333333H341.333333v85.333333h256z m-256 170.666667h341.333334v-85.333334H341.333333v85.333334z m0 170.666666h256v-85.333333H341.333333V597.333333z"  horiz-adv-x="1024" />

    
    <glyph glyph-name="Underscore" unicode="&#58926;" d="M810.666667 85.333333v-85.333333H213.333333v85.333333h597.333334zM384 725.333333v-341.333333a128 128 0 0 1 256 0V725.333333h85.333333v-341.333333a213.333333 213.333333 0 0 0-426.666666 0V725.333333h85.333333z"  horiz-adv-x="1024" />

    
    <glyph glyph-name="disorder" unicode="&#58927;" d="M298.666667 191.744v-128H170.666667v128h128zM853.333333 170.666667v-85.333334H341.333333v85.333334h512zM298.666667 447.744v-128H170.666667v128h128zM853.333333 426.666667v-85.333334H341.333333v85.333334h512zM298.666667 703.744v-128H170.666667v128h128zM853.333333 682.666667v-85.333334H341.333333V682.666667h512z"  horiz-adv-x="1024" />

    
    <glyph glyph-name="Doublecolumn" unicode="&#58928;" d="M853.333333 725.333333v-85.333333l-0.042666-512H853.333333v-85.333333H256v85.333333l213.333333 0.042667V640h85.333334v-512h213.290666L768 640 256 640.042667V42.666667H170.666667V725.333333h682.666666z"  horiz-adv-x="1024" />

    
    <glyph glyph-name="link" unicode="&#58929;" d="M270.634667 444.330667L330.965333 384l-60.330666-60.330667a128 128 0 1 1 181.034666-181.034666L512 202.965333l60.330667-60.330666L512 82.346667A213.333333 213.333333 0 1 0 210.304 384l60.330667 60.330667z m331.861333 90.538666l60.373333-60.373333-241.365333-241.365333-60.373333 60.373333 241.365333 241.365333z m150.869333-211.2L693.034667 384l60.330666 60.330667 5.76 6.144a128 128 0 0 1-186.794666 174.890666L512 565.034667l-60.330667 60.330666L512 685.653333l7.68 7.338667A213.333333 213.333333 0 0 0 813.738667 384l-60.330667-60.330667z"  horiz-adv-x="1024" />

    
    <glyph glyph-name="unfold" unicode="&#58930;" d="M738.261333 499.541333l45.269334-45.226666L512 182.784l-271.530667 271.530667 45.226667 45.226666L512 273.28l226.304 226.261333z"  horiz-adv-x="1024" />

    
    <glyph glyph-name="blod" unicode="&#58934;" d="M298.666667 42.666667V725.333333h277.333333a192 192 0 0 0 130.56-332.8A192 192 0 0 0 597.333333 42.666667H298.666667z m298.666666 298.666666H384v-213.333333h213.333333a106.666667 106.666667 0 1 1 0 213.333333zM384 640.042667V426.666667h192a106.666667 106.666667 0 1 1 0 213.333333L384 640.042667z"  horiz-adv-x="1024" />

    


  </font>
</defs>
</svg>
