<svg xmlns="http://www.w3.org/2000/svg" viewBox="0 0 24 24">
    <g stroke="none" stroke-width="1" fill="none" fill-rule="evenodd">
        <path d="M5,15.4807823 L7.999,15.4807823 L8.019,15.4807823 C8.026,15.4807823 8.697,15.4807823 9.588,15.482058 C10.08,15.4833336 10.559,15.6313081 10.999,15.8864366 L10.999,17.1620791 C10.559,16.9069506 10.08,16.7589761 9.588,16.7577004 C8.697,16.7564248 8.026,16.7564248 8.019,16.7564248 L7.999,16.7564248 L5,16.7564248 L5,15.4807823 Z M5,11.6538549 L7.999,11.6538549 L8.019,11.6538549 C8.026,11.6538549 8.697,11.6538549 9.588,11.6551305 C10.08,11.6564062 10.559,11.8043807 10.999,12.0595092 L10.999,13.3351517 C10.559,13.0800232 10.08,12.9320486 9.588,12.930773 C8.697,12.9294974 8.026,12.9294974 8.019,12.9294974 L7.999,12.9294974 L5,12.9294974 L5,11.6538549 Z M5,7.82692744 L7.999,7.82692744 L8.019,7.82692744 C8.026,7.82692744 8.697,7.82692744 9.588,7.82820308 C10.08,7.82947872 10.559,7.97745325 10.999,8.23258175 L10.999,9.50822423 C10.559,9.25309573 10.08,9.1051212 9.588,9.10384556 C8.697,9.10256992 8.026,9.10256992 8.019,9.10256992 L7.999,9.10256992 L5,9.10256992 L5,7.82692744 Z M13,15.8864366 C13.44,15.6313081 13.92,15.4833336 14.412,15.482058 C15.302,15.4807823 15.974,15.4807823 15.98,15.4807823 L16,15.4807823 L18.999,15.4807823 L18.999,16.7564248 L16,16.7564248 L15.98,16.7564248 C15.974,16.7564248 15.302,16.7564248 14.412,16.7577004 C13.92,16.7589761 13.44,16.9069506 13,17.1620791 L13,15.8864366 Z M13,12.0595092 C13.44,11.8043807 13.92,11.6564062 14.412,11.6551305 C15.302,11.6538549 15.974,11.6538549 15.98,11.6538549 L16,11.6538549 L18.999,11.6538549 L18.999,12.9294974 L16,12.9294974 L15.98,12.9294974 C15.974,12.9294974 15.302,12.9294974 14.412,12.930773 C13.92,12.9320486 13.44,13.0800232 13,13.3351517 L13,12.0595092 Z M13,8.23258175 C13.44,7.97745325 13.92,7.82947872 14.412,7.82820308 C15.302,7.82692744 15.974,7.82692744 15.98,7.82692744 L16,7.82692744 L18.999,7.82692744 L18.999,9.10256992 L16,9.10256992 L15.98,9.10256992 C15.974,9.10256992 15.302,9.10256992 14.412,9.10384556 C13.92,9.1051212 13.44,9.25309573 13,9.50822423 L13,8.23258175 Z M9.588,20.5846279 C10.491,20.5859035 11.361,21.0438592 12,21.8589947 C12.639,21.0438592 13.509,20.5859035 14.412,20.5846279 C15.302,20.5833522 20,20.5833522 20,20.5833522 C20.553,20.5833522 21,20.0118644 21,19.3077098 L21,5.27564248 C21,4.57148783 20.553,4 20,4 C20,4 15.302,4 14.412,4.00127564 C13.509,4.00255128 12.639,4.46050693 12,5.27564248 C11.361,4.46050693 10.491,4.00255128 9.588,4.00127564 C8.698,4 4,4 4,4 C3.447,4 3,4.57148783 3,5.27564248 L3,19.3077098 C3,20.0118644 3.447,20.5833522 4,20.5833522 C4,20.5833522 8.698,20.5833522 9.588,20.5846279 Z" id="books" fill="#EE0000"></path>
    </g>
</svg>