<svg width="24" height="25" viewBox="0 0 24 25" fill="none" xmlns="http://www.w3.org/2000/svg">
<circle cx="12" cy="12.9951" r="12" fill="white"/>
<path fill-rule="evenodd" clip-rule="evenodd" d="M9.55616 9.53593C9.54062 9.75333 9.53804 11.2894 9.55357 11.3156C9.56522 11.3351 10.2643 11.344 10.3308 11.3254C10.3601 11.3174 10.3623 11.2493 10.3623 10.2353V9.15403L10.4154 8.98065C10.4447 8.88551 10.5181 8.63565 10.5789 8.42537C10.625 8.26566 10.6786 8.0822 10.7142 7.96014C10.7256 7.92115 10.7352 7.88843 10.7421 7.86475C11.0057 6.97959 11.2577 6.10822 11.2642 6.05887L11.2724 5.99796L10.9034 5.99574C10.5699 5.99396 10.468 5.99574 10.459 6.00463C10.4546 6.00863 10.3394 6.45899 10.1344 7.27524C10.0365 7.66425 9.95405 7.97501 9.95146 7.96612C9.94915 7.95863 9.88017 7.69698 9.7849 7.33559C9.75562 7.22455 9.72387 7.10409 9.6908 6.9787C9.55055 6.44476 9.43317 6.00552 9.42972 6.00196C9.42454 5.99663 8.97789 5.9944 8.61582 5.99752C8.60757 5.99758 8.5999 5.99506 8.59495 5.99767C8.56831 6.01174 8.62036 6.17474 9.08362 7.6927C9.15957 7.94166 9.2735 8.29466 9.3365 8.47649C9.5307 9.03755 9.57644 9.25718 9.55616 9.53593ZM8.69571 13.816L8.68664 16.0847L8.67758 18.3534L8.31896 18.3583C8.04234 18.3623 7.95862 18.3579 7.95215 18.3396C7.9474 18.3268 7.94136 17.3033 7.9392 16.0661L7.93446 13.816L7.53139 13.8116L7.12833 13.8063V13.4519V13.0972L8.3194 13.1021L9.51133 13.1069L9.51651 13.4568L9.52125 13.8063L9.1087 13.8116L8.69571 13.816ZM15.5905 15.2796C15.5681 15.3556 15.5448 15.8798 15.5616 15.9251C15.5707 15.95 15.6216 15.954 15.9276 15.954H16.2836L16.2775 15.6228C16.2715 15.3187 16.2676 15.2836 16.2283 15.2014C16.1662 15.0715 16.0739 15.0137 15.9284 15.0137C15.7536 15.0137 15.6427 15.1009 15.5905 15.2796ZM16.9072 17.6768C16.8161 18.0231 16.5749 18.2685 16.2262 18.3694C15.7558 18.5046 15.2384 18.2823 15.0317 17.8568C14.916 17.6177 14.9121 17.5701 14.9121 16.4022C14.9121 15.4499 14.9156 15.3334 14.9449 15.2036C15.0282 14.8355 15.2358 14.5976 15.5871 14.4656C16.0527 14.2909 16.6133 14.5118 16.8157 14.9497C16.9218 15.1809 16.9348 15.2796 16.946 15.9305L16.9551 16.5138L16.2599 16.5191L15.5646 16.5235L15.5595 16.9157C15.5521 17.4687 15.5879 17.639 15.7329 17.7399C15.8546 17.8244 16.0419 17.8177 16.1438 17.7257C16.2396 17.639 16.2668 17.5461 16.2763 17.2753L16.2845 17.037H16.6206H16.9564L16.946 17.3029C16.94 17.4492 16.9223 17.6177 16.9072 17.6768ZM13.5661 17.5687C13.5441 17.6332 13.5161 17.6746 13.4734 17.7043C13.3646 17.779 13.2071 17.7555 13.0634 17.6425L12.9999 17.5928V16.4022V15.2116L13.0638 15.1618C13.258 15.0089 13.4699 15.0258 13.5541 15.2005C13.5869 15.2689 13.589 15.3303 13.5929 16.3742C13.5968 17.3758 13.5942 17.4838 13.5661 17.5687ZM14.185 18.0836C14.1276 18.2156 13.9998 18.345 13.8941 18.3765C13.6205 18.4601 13.4009 18.3926 13.1471 18.1467C13.0681 18.0702 12.9948 18.008 12.984 18.008C12.9706 18.008 12.9637 18.0676 12.9637 18.1854V18.3628H12.6375H12.3112V15.73V13.0976H12.6375H12.9637V13.9565C12.9637 14.4287 12.9702 14.8155 12.9771 14.8155C12.9848 14.8155 13.0535 14.7528 13.1303 14.6768C13.3068 14.5011 13.4539 14.4247 13.6408 14.4096C13.9748 14.3838 14.1733 14.5603 14.2644 14.9644C14.2924 15.0907 14.2959 15.2347 14.2959 16.4022C14.2959 17.8244 14.2955 17.8306 14.185 18.0836ZM10.834 18.0649C10.705 18.2001 10.5518 18.3094 10.4215 18.3592C10.1513 18.4637 9.89497 18.4028 9.78536 18.2089C9.68524 18.0316 9.68352 17.9915 9.68352 16.1505V14.4607H10.0089H10.3352L10.3399 16.0523C10.3451 17.6159 10.3459 17.6452 10.3822 17.7083C10.4301 17.7933 10.5043 17.8164 10.6208 17.783C10.6899 17.7635 10.7365 17.7288 10.8478 17.6145L10.9885 17.4709V15.9656V14.4607H11.3148H11.641V16.4115V18.3628H11.3148H10.9885V18.1574C10.9885 18.0027 10.9825 17.952 10.9652 17.952C10.9523 17.952 10.8931 18.0027 10.834 18.0649ZM9.58383 19.9606C9.77328 19.9677 10.2747 19.9797 10.6985 19.9873C11.5815 20.0033 13.2049 19.9939 14.1328 19.9673C14.7572 19.949 15.8956 19.9019 16.1079 19.885C16.1679 19.8801 16.3065 19.8712 16.4161 19.8646C16.785 19.8432 17.0194 19.7636 17.239 19.5854C17.5243 19.3546 17.7444 18.9287 17.8376 18.429C17.9261 17.9564 17.9852 17.1144 17.9968 16.1585C18.0072 15.3596 17.9934 14.9284 17.9377 14.2366C17.8665 13.3626 17.8108 13.0789 17.6356 12.7148C17.4039 12.2325 17.069 11.9782 16.5921 11.9221C16.2236 11.879 14.8366 11.8177 13.5528 11.7883C11.3303 11.7376 7.67682 11.8354 7.20989 11.9586C6.99455 12.0155 6.83272 12.1115 6.66442 12.2845C6.36967 12.5868 6.19403 13.0202 6.12326 13.6204C5.96229 14.9897 5.95884 16.6449 6.11376 18.064C6.18065 18.6744 6.31875 19.071 6.57681 19.3977C6.73821 19.6018 7.01613 19.7752 7.2647 19.8268C7.43904 19.8632 8.31206 19.9135 9.58383 19.9606ZM14.3222 11.3805C14.14 11.3556 14.0335 11.2831 13.9605 11.1342C13.869 10.9475 13.869 10.9484 13.869 9.08779V7.35171H14.2367H14.604L14.6117 8.95219C14.6199 10.6905 14.6178 10.65 14.7188 10.6763C14.8115 10.6998 14.9142 10.6487 15.042 10.5144L15.1645 10.386L15.1693 8.86861L15.1736 7.35171L15.5408 7.34637L15.9081 7.34193V9.32875V11.316L15.858 11.3267C15.798 11.3396 15.2414 11.3387 15.1965 11.3254C15.1693 11.3178 15.165 11.292 15.165 11.1364V10.9559L15.0605 11.0608C14.8206 11.3014 14.5617 11.4134 14.3222 11.3805ZM12.4717 10.6216C12.5977 10.5229 12.5986 10.5144 12.605 9.39722C12.6106 8.52895 12.6076 8.38135 12.5822 8.26309C12.5476 8.10305 12.4872 8.02747 12.369 7.99412C12.2162 7.95233 12.0764 8.04214 12.0272 8.21419C11.9901 8.34668 11.9905 10.3162 12.0281 10.4486C12.0565 10.5482 12.1476 10.6572 12.2149 10.6723C12.3025 10.6914 12.41 10.6701 12.4721 10.6216H12.4717ZM12.1838 11.3796C11.855 11.3387 11.5529 11.1395 11.4075 10.8674C11.2595 10.5905 11.2457 10.4455 11.2543 9.22561C11.2612 8.28088 11.2638 8.22175 11.3 8.08615C11.3868 7.76383 11.5547 7.54421 11.8149 7.41128C12.1722 7.22945 12.5576 7.25301 12.8946 7.47797C13.1095 7.62068 13.2398 7.82785 13.3098 8.13594C13.3404 8.27199 13.3434 8.37646 13.3434 9.33053C13.3434 10.4909 13.3382 10.558 13.2226 10.8092C13.1117 11.0515 12.8605 11.2649 12.5986 11.34C12.4829 11.3725 12.2822 11.392 12.1838 11.3796Z" fill="#005172"/>
</svg>
