<svg xmlns="http://www.w3.org/2000/svg" xmlns:xlink="http://www.w3.org/1999/xlink" width="25" height="25" viewBox="0 0 25 25"><defs><rect id="b" width="17" height="17" rx="3"/><filter id="a" width="182.4%" height="182.4%" x="-41.2%" y="-29.4%" filterUnits="objectBoundingBox"><feOffset dy="2" in="SourceAlpha" result="shadowOffsetOuter1"/><feGaussianBlur in="shadowOffsetOuter1" result="shadowBlurOuter1" stdDeviation="2"/><feComposite in="shadowBlurOuter1" in2="SourceAlpha" operator="out" result="shadowBlurOuter1"/><feColorMatrix in="shadowBlurOuter1" values="0 0 0 0 0 0 0 0 0 0 0 0 0 0 0 0 0 0 0.2 0"/></filter></defs><g fill="none" fill-rule="evenodd" transform="translate(4 2)"><use fill="#000" filter="url(#a)" xlink:href="#b"/><rect width="16.5" height="16.5" x=".25" y=".25" fill="#019CC0" stroke="#FFF" stroke-linejoin="square" stroke-width=".5" rx="3"/><path d="M3.45 9.055a1.593 1.593 0 0 1-.375-1.057c0-.37.13-.689.389-.959.26-.27.566-.405.921-.405h1.892a1.204 1.204 0 0 0-.13-.327 5.662 5.662 0 0 1-.256-.525 2.962 2.962 0 0 1-.13-.425 2.292 2.292 0 0 1-.065-.54 3.084 3.084 0 0 1 .038-.596c.02-.142.048-.26.082-.355a1.67 1.67 0 0 1 .164-.32.971.971 0 0 1 .273-.287c.107-.074.243-.135.41-.185A1.96 1.96 0 0 1 7.226 3c.119 0 .221.045.307.135.092.094.169.213.233.355.063.142.108.265.133.369.025.104.053.248.085.433.041.199.072.342.092.43.02.087.061.202.12.343.06.143.13.256.212.341.15.156.38.44.69.852.222.303.452.59.689.859.237.27.41.41.519.419.114.01.212.058.294.145.082.088.123.191.123.31v4.55a.434.434 0 0 1-.13.315.444.444 0 0 1-.308.139c-.159.005-.518.109-1.078.312-.351.123-.625.217-.823.28a8.417 8.417 0 0 1-.83.207c-.355.073-.682.11-.983.11h-.88c-.606-.01-1.055-.195-1.346-.554-.264-.326-.375-.755-.335-1.285a1.394 1.394 0 0 1-.368-.667 1.515 1.515 0 0 1 0-.83 1.515 1.515 0 0 1-.294-.973c0-.152.034-.331.102-.54zm8.147-1.512h1.966c.118 0 .221.045.307.135.087.09.13.197.13.32v4.543c0 .123-.043.23-.13.32a.414.414 0 0 1-.307.134h-1.966a.412.412 0 0 1-.308-.135.445.445 0 0 1-.13-.32V7.999c0-.123.044-.23.13-.32a.412.412 0 0 1 .308-.135zm.785 4.412a.416.416 0 0 0 .307.131.414.414 0 0 0 .31-.131.448.448 0 0 0 .127-.323.453.453 0 0 0-.126-.32.41.41 0 0 0-.311-.134.412.412 0 0 0-.307.135.446.446 0 0 0-.13.32.44.44 0 0 0 .13.322z" fill="#FFF"/></g></svg>
