<svg width="24" height="24" viewBox="0 0 24 24" fill="none" xmlns="http://www.w3.org/2000/svg">
<circle cx="12" cy="12" r="12" fill="white"/>
<g clip-path="url(#clip0_818_8909)">
<path d="M17.7445 13.7934C17.5681 14.7104 16.1647 15.714 14.5527 15.9085C13.7122 16.0099 12.8846 16.103 12.0022 16.0621C10.559 15.9953 9.42017 15.714 9.42017 15.714C9.42017 15.856 9.42883 15.9912 9.44616 16.1176C9.63378 17.5568 10.8584 17.6431 12.0185 17.6833C13.1894 17.7237 14.232 17.3915 14.232 17.3915L14.2801 18.4612C14.2801 18.4612 13.4611 18.9056 12.0022 18.9873C11.1977 19.032 10.1987 18.9669 9.03528 18.6557C6.51193 17.9808 6.07797 15.2627 6.01157 12.5048C5.99133 11.686 6.0038 10.9139 6.0038 10.2681C6.0038 7.44801 7.83231 6.6214 7.83231 6.6214C8.75429 6.19352 10.3363 6.01359 11.981 6H12.0214C13.6661 6.01359 15.2492 6.19352 16.1711 6.6214C16.1711 6.6214 17.9995 7.44801 17.9995 10.2681C17.9995 10.2681 18.0225 12.3488 17.7445 13.7934Z" fill="#005172"/>
<path d="M15.8428 10.4869V13.9015H14.504V10.5872C14.504 9.88859 14.2131 9.53397 13.6312 9.53397C12.9879 9.53397 12.6655 9.95464 12.6655 10.7864V12.6005H11.3346V10.7864C11.3346 9.95464 11.0121 9.53397 10.3687 9.53397C9.78688 9.53397 9.49598 9.88859 9.49598 10.5872V13.9015H8.15723V10.4869C8.15723 9.78899 8.33307 9.23441 8.68628 8.82412C9.05051 8.41382 9.52751 8.20349 10.1196 8.20349C10.8047 8.20349 11.3235 8.46957 11.6665 9.00181L12 9.56668L12.3335 9.00181C12.6765 8.46957 13.1953 8.20349 13.8804 8.20349C14.4725 8.20349 14.9495 8.41382 15.3138 8.82412C15.6669 9.23441 15.8428 9.78899 15.8428 10.4869Z" fill="white"/>
</g>
<defs>
<clipPath id="clip0_818_8909">
<rect width="12" height="13" fill="white" transform="translate(6 6)"/>
</clipPath>
</defs>
</svg>
