<svg width="24" height="25" viewBox="0 0 24 25" fill="none" xmlns="http://www.w3.org/2000/svg">
<circle cx="12" cy="12.9951" r="12" fill="white"/>
<path fill-rule="evenodd" clip-rule="evenodd" d="M16.7492 9.58096C17.2656 9.26896 17.6618 8.77423 17.8478 8.18489C17.3643 8.47451 16.8301 8.68395 16.2601 8.79734C15.8052 8.30623 15.1551 8 14.4356 8C13.0553 8 11.9368 9.13029 11.9368 10.5242C11.9368 10.7221 11.9575 10.9149 12.0004 11.0991C9.92351 10.9936 8.0819 9.98974 6.84821 8.46151C6.63294 8.83562 6.50993 9.26896 6.50993 9.73119C6.50993 10.6065 6.9512 11.3793 7.62204 11.8329C7.21224 11.8199 6.82675 11.705 6.48919 11.5173V11.5483C6.48919 12.7718 7.35027 13.7923 8.49528 14.0234C8.28502 14.0826 8.06474 14.1122 7.83588 14.1122C7.67496 14.1122 7.51762 14.0971 7.366 14.0675C7.68355 15.0699 8.60685 15.8008 9.70108 15.8203C8.84501 16.4978 7.76722 16.9008 6.59646 16.9008C6.39478 16.9008 6.19525 16.8899 6 16.8661C7.10639 17.5818 8.42019 18 9.83196 18C14.4306 18 16.9438 14.1534 16.9438 10.8174C16.9438 10.7076 16.9423 10.5986 16.9373 10.491C17.4258 10.1349 17.8506 9.69002 18.1846 9.18374C17.7362 9.38452 17.2542 9.52029 16.7492 9.58096Z" fill="#005172"/>
</svg>
