<svg viewBox="0 0 128 128" xmlns="http://www.w3.org/2000/svg"><g clip-rule="evenodd" fill-rule="evenodd"><path fill="none" d="M0 0h128v128H0z"/><path d="M126.7 38.2s-1.2-8.9-5-12.8c-5-5.1-10.4-5.1-12.9-5.4C91 18.7 64 18.7 64 18.7S37 18.7 19.2 20c-2.5.3-8 .3-12.8 5.4-3.9 4-5.1 12.8-5.1 12.8S0 48.7 0 59.1v9.8c0 10.4 1.3 20.8 1.3 20.8s1.2 9 5 12.8c5 5.2 11.3 5 14.2 5.5 10.2 1 43.5 1.3 43.5 1.3s26.9 0 44.8-1.3c2.5-.3 8-.3 12.8-5.5 3.9-3.9 5.1-12.8 5.1-12.8S128 79.3 128 69V59c0-10.4-1.3-20.9-1.3-20.9zm-76 42.5V44.5l34.7 18.2-34.6 18z" fill="#FFFFFF"/></g></svg>